<svg width="512" height="512" viewBox="0 0 512 512" fill="none" xmlns="http://www.w3.org/2000/svg">
<g filter="url(#filter0_i_2953_912)">
<path d="M0 256C0 114.615 114.615 0 256 0V0C397.385 0 512 114.615 512 256V256C512 397.385 397.385 512 256 512V512C114.615 512 0 397.385 0 256V256Z" fill="url(#paint0_linear_2953_912)"/>
<path d="M256 0.5C397.109 0.5 511.5 114.891 511.5 256C511.5 397.109 397.109 511.5 256 511.5C114.891 511.5 0.5 397.109 0.5 256C0.5 114.891 114.891 0.5 256 0.5Z" stroke="white" stroke-opacity="0.12"/>
<path d="M324.278 78.5L311 68.9321L326.773 73.3276L325.989 57L332.381 72.0499L344.681 61.2583L336.878 75.6296L353 78.5L336.878 81.3703L344.681 95.7416L332.381 84.9501L325.989 100L326.773 83.6724L311 88.0686L324.278 78.5Z" fill="#F1DCCC"/>
<path d="M440.852 255.5L432 249.047L442.515 252.012L441.993 241L446.254 251.15L454.454 243.872L449.252 253.564L460 255.5L449.252 257.436L454.454 267.128L446.254 259.85L441.993 270L442.515 258.988L432 261.953L440.852 255.5Z" fill="#F1DCCC"/>
<g filter="url(#filter1_d_2953_912)">
<path d="M220.493 119.29C223.777 118.46 227.223 118.461 230.507 119.29C291.711 134.756 337 190.101 337 256.007C337 321.914 291.71 377.259 230.504 392.724C227.22 393.554 223.775 393.553 220.49 392.724C159.287 377.257 114 321.912 114 256.007C114 190.101 159.289 134.756 220.493 119.29Z" fill="#ECDC53" fill-opacity="0.06" shape-rendering="crispEdges"/>
</g>
<path d="M219.486 120.289C222.775 119.456 226.225 119.456 229.515 120.29C290.143 135.662 335 190.591 335 256C335 321.409 290.143 376.338 229.515 391.71C226.225 392.544 222.775 392.544 219.485 391.71C158.857 376.338 114 321.409 114 256C114 190.591 158.857 135.662 219.486 120.289Z" fill="url(#paint1_linear_2953_912)" fill-opacity="0.92"/>
</g>
<defs>
<filter id="filter0_i_2953_912" x="0" y="0" width="512" height="513" filterUnits="userSpaceOnUse" color-interpolation-filters="sRGB">
<feFlood flood-opacity="0" result="BackgroundImageFix"/>
<feBlend mode="normal" in="SourceGraphic" in2="BackgroundImageFix" result="shape"/>
<feColorMatrix in="SourceAlpha" type="matrix" values="0 0 0 0 0 0 0 0 0 0 0 0 0 0 0 0 0 0 127 0" result="hardAlpha"/>
<feOffset dy="1"/>
<feGaussianBlur stdDeviation="1"/>
<feComposite in2="hardAlpha" operator="arithmetic" k2="-1" k3="1"/>
<feColorMatrix type="matrix" values="0 0 0 0 1 0 0 0 0 1 0 0 0 0 1 0 0 0 0.15 0"/>
<feBlend mode="normal" in2="shape" result="effect1_innerShadow_2953_912"/>
</filter>
<filter id="filter1_d_2953_912" x="114" y="118.668" width="231" height="282.678" filterUnits="userSpaceOnUse" color-interpolation-filters="sRGB">
<feFlood flood-opacity="0" result="BackgroundImageFix"/>
<feColorMatrix in="SourceAlpha" type="matrix" values="0 0 0 0 0 0 0 0 0 0 0 0 0 0 0 0 0 0 127 0" result="hardAlpha"/>
<feOffset dx="4" dy="4"/>
<feGaussianBlur stdDeviation="2"/>
<feComposite in2="hardAlpha" operator="out"/>
<feColorMatrix type="matrix" values="0 0 0 0 1 0 0 0 0 1 0 0 0 0 1 0 0 0 0.25 0"/>
<feBlend mode="normal" in2="BackgroundImageFix" result="effect1_dropShadow_2953_912"/>
<feBlend mode="normal" in="BackgroundImageFix" in2="effect1_dropShadow_2953_912" result="BackgroundImageFix"/>
<feBlend mode="normal" in="SourceGraphic" in2="BackgroundImageFix" result="shape"/>
</filter>
<linearGradient id="paint0_linear_2953_912" x1="256" y1="0" x2="256" y2="512" gradientUnits="userSpaceOnUse">
<stop offset="0.00976562" stop-color="white" stop-opacity="0.06"/>
<stop offset="1" stop-opacity="0.15"/>
</linearGradient>
<linearGradient id="paint1_linear_2953_912" x1="335" y1="256" x2="114" y2="256" gradientUnits="userSpaceOnUse">
<stop stop-color="#FFF3A0"/>
<stop offset="0.466346" stop-color="#ECDC7A"/>
<stop offset="1" stop-color="#C9B84A"/>
</linearGradient>
</defs>
</svg>
