<svg width="37" height="37" viewBox="0 0 37 37" fill="none" xmlns="http://www.w3.org/2000/svg">
<path d="M14.1514 29.3331C14.8701 29.3332 15.4531 29.9161 15.4531 30.6349V32.3702C15.4531 33.089 14.8702 33.6719 14.1514 33.672C13.4325 33.672 12.8496 33.0891 12.8496 32.3702V30.6349C12.8497 29.916 13.4325 29.3331 14.1514 29.3331ZM7.05371 26.7794C7.56205 26.271 8.38617 26.271 8.89453 26.7794C9.40287 27.2878 9.40287 28.1119 8.89453 28.6202L7.40137 30.1134C6.89301 30.6218 6.06889 30.6217 5.56055 30.1134C5.05219 29.605 5.05219 28.7809 5.56055 28.2726L7.05371 26.7794ZM19.4072 26.7794C19.9156 26.271 20.7397 26.271 21.248 26.7794L22.7422 28.2726C23.2504 28.7809 23.2503 29.605 22.7422 30.1134C22.2339 30.6217 21.4097 30.6217 20.9014 30.1134L19.4072 28.6202C18.899 28.1119 18.8992 27.2878 19.4072 26.7794ZM14.1514 16.2667C17.054 16.2668 19.4072 18.6209 19.4072 21.5236C19.407 24.426 17.0539 26.7793 14.1514 26.7794C11.2487 26.7794 8.89577 24.4261 8.89551 21.5236C8.89551 18.6208 11.2486 16.2667 14.1514 16.2667ZM5.03906 20.2218C5.75796 20.2218 6.34082 20.8047 6.34082 21.5236C6.34056 22.2422 5.7578 22.8243 5.03906 22.8243H3.30371C2.58496 22.8243 2.00221 22.2422 2.00195 21.5236C2.00195 20.8047 2.5848 20.2218 3.30371 20.2218H5.03906ZM23.4521 3.21594C24.9019 2.3789 26.1447 4.18045 25.8086 5.82043C25.3239 8.18512 25.6697 10.7315 26.9727 12.9884C28.2756 15.2452 30.3076 16.8185 32.5977 17.5812C34.1859 18.11 35.1252 20.0858 33.6758 20.923C31.3244 22.2806 28.6567 22.5908 26.207 22.004C26.0156 22.4845 25.5477 22.8242 24.999 22.8243H23.2627C22.5441 22.8242 21.9612 22.2421 21.9609 21.5236C21.9609 21.0303 22.2352 20.5999 22.6396 20.379C21.4861 19.555 20.4839 18.4793 19.7285 17.171C16.9055 12.2814 18.5724 6.03335 23.4521 3.21594ZM5.56055 12.9327C6.06889 12.4244 6.89301 12.4244 7.40137 12.9327L8.89453 14.4259C9.40287 14.9342 9.40287 15.7584 8.89453 16.2667C8.38616 16.7749 7.56201 16.775 7.05371 16.2667L5.56055 14.7736C5.05223 14.2652 5.05232 13.4411 5.56055 12.9327ZM14.1514 9.37414C14.8702 9.37426 15.4531 9.95706 15.4531 10.6759V12.4112C15.4531 13.13 14.8701 13.7129 14.1514 13.713C13.4325 13.713 12.8496 13.1301 12.8496 12.4112V10.6759C12.8496 9.95699 13.4325 9.37414 14.1514 9.37414Z" fill="url(#paint0_linear_2953_1116)" fill-opacity="0.92"/>
<path d="M14.1514 29.3331L14.1515 28.8327H14.1514V29.3331ZM15.4531 30.6349H15.9536V30.6349L15.4531 30.6349ZM14.1514 33.672V34.1724H14.1515L14.1514 33.672ZM12.8496 30.6349L12.3492 30.6349V30.6349H12.8496ZM7.05371 26.7794L7.40759 27.1333L7.40761 27.1333L7.05371 26.7794ZM8.89453 26.7794L8.54064 27.1333L8.54065 27.1333L8.89453 26.7794ZM8.89453 28.6202L9.24841 28.9741L9.24841 28.9741L8.89453 28.6202ZM7.40137 30.1134L7.75524 30.4673V30.4673L7.40137 30.1134ZM5.56055 30.1134L5.91443 29.7595L5.91442 29.7595L5.56055 30.1134ZM5.56055 28.2726L5.91442 28.6265V28.6265L5.56055 28.2726ZM19.4072 26.7794L19.0533 26.4256L19.0532 26.4256L19.4072 26.7794ZM21.248 26.7794L20.8942 27.1333L20.8943 27.1334L21.248 26.7794ZM22.7422 28.2726L23.0961 27.9187L23.0959 27.9186L22.7422 28.2726ZM22.7422 30.1134L23.0961 30.4673L23.0961 30.4672L22.7422 30.1134ZM20.9014 30.1134L21.2552 29.7595L21.2551 29.7594L20.9014 30.1134ZM19.4072 28.6202L19.0533 28.9741L19.0535 28.9742L19.4072 28.6202ZM14.1514 16.2667L14.1514 15.7663H14.1514V16.2667ZM19.4072 21.5236L19.9077 21.5236V21.5236H19.4072ZM14.1514 26.7794V27.2799H14.1514L14.1514 26.7794ZM8.89551 21.5236H8.39505V21.5236L8.89551 21.5236ZM6.34082 21.5236L6.84128 21.5237V21.5236H6.34082ZM2.00195 21.5236H1.5015L1.5015 21.5237L2.00195 21.5236ZM23.4521 3.21594L23.2019 2.78253L23.2019 2.78253L23.4521 3.21594ZM25.8086 5.82043L26.2989 5.92091L26.2989 5.92089L25.8086 5.82043ZM26.9727 12.9884L26.5392 13.2386L26.5392 13.2386L26.9727 12.9884ZM32.5977 17.5812L32.4395 18.056L32.4395 18.056L32.5977 17.5812ZM33.6758 20.923L33.926 21.3564L33.9261 21.3563L33.6758 20.923ZM26.207 22.004L26.3236 21.5173L25.9024 21.4164L25.7421 21.8188L26.207 22.004ZM24.999 22.8243V23.3248H24.9992L24.999 22.8243ZM23.2627 22.8243L23.2626 23.3248H23.2627V22.8243ZM21.9609 21.5236H21.4605V21.5237L21.9609 21.5236ZM22.6396 20.379L22.8795 20.8183L23.58 20.4357L22.9305 19.9718L22.6396 20.379ZM19.7285 17.171L19.2951 17.4212L19.2951 17.4212L19.7285 17.171ZM5.56055 12.9327L5.20666 12.5789L5.20663 12.5789L5.56055 12.9327ZM7.40137 12.9327L7.75524 12.5789V12.5789L7.40137 12.9327ZM8.89453 14.4259L8.54065 14.7798V14.7798L8.89453 14.4259ZM8.89453 16.2667L9.24835 16.6206L9.24841 16.6206L8.89453 16.2667ZM7.05371 16.2667L6.69983 16.6206V16.6206L7.05371 16.2667ZM5.56055 14.7736L5.91442 14.4197V14.4197L5.56055 14.7736ZM14.1514 9.37414L14.1515 8.87368H14.1514V9.37414ZM15.4531 12.4112L15.9536 12.4113V12.4112H15.4531ZM14.1514 13.713V14.2135H14.1515L14.1514 13.713ZM12.8496 12.4112H12.3492V12.4113L12.8496 12.4112ZM14.1514 29.3331L14.1513 29.8336C14.5938 29.8337 14.9526 30.1926 14.9527 30.6349L15.4531 30.6349L15.9536 30.6349C15.9535 29.6397 15.1465 28.8328 14.1515 28.8327L14.1514 29.3331ZM15.4531 30.6349H14.9527V32.3702H15.4531H15.9536V30.6349H15.4531ZM15.4531 32.3702H14.9527C14.9527 32.8126 14.5938 33.1715 14.1513 33.1715L14.1514 33.672L14.1515 34.1724C15.1465 34.1723 15.9536 33.3655 15.9536 32.3702H15.4531ZM14.1514 33.672V33.1715C13.7089 33.1715 13.3501 32.8127 13.3501 32.3702H12.8496H12.3492C12.3492 33.3655 13.1561 34.1724 14.1514 34.1724V33.672ZM12.8496 32.3702H13.3501V30.6349H12.8496H12.3492V32.3702H12.8496ZM12.8496 30.6349L13.3501 30.6349C13.3501 30.1924 13.7089 29.8336 14.1514 29.8336V29.3331V28.8327C13.1561 28.8327 12.3492 29.6397 12.3492 30.6349L12.8496 30.6349ZM7.05371 26.7794L7.40761 27.1333C7.72049 26.8203 8.22772 26.8203 8.54064 27.1333L8.89453 26.7794L9.24842 26.4255C8.54463 25.7217 7.4036 25.7217 6.69981 26.4256L7.05371 26.7794ZM8.89453 26.7794L8.54065 27.1333C8.85355 27.4462 8.85355 27.9534 8.54065 28.2664L8.89453 28.6202L9.24841 28.9741C9.95219 28.2703 9.95219 27.1293 9.24841 26.4255L8.89453 26.7794ZM8.89453 28.6202L8.54065 28.2664L7.04749 29.7595L7.40137 30.1134L7.75524 30.4673L9.24841 28.9741L8.89453 28.6202ZM7.40137 30.1134L7.04749 29.7595C6.73457 30.0724 6.22732 30.0724 5.91443 29.7595L5.56055 30.1134L5.20667 30.4673C5.91045 31.1711 7.05145 31.1711 7.75524 30.4673L7.40137 30.1134ZM5.56055 30.1134L5.91442 29.7595C5.60151 29.4466 5.60151 28.9394 5.91442 28.6265L5.56055 28.2726L5.20667 27.9187C4.50287 28.6225 4.50287 29.7635 5.20667 30.4673L5.56055 30.1134ZM5.56055 28.2726L5.91442 28.6265L7.40759 27.1333L7.05371 26.7794L6.69983 26.4255L5.20667 27.9187L5.56055 28.2726ZM19.4072 26.7794L19.7611 27.1333C20.074 26.8203 20.5812 26.8203 20.8942 27.1333L21.248 26.7794L21.6019 26.4256C20.8981 25.7217 19.7571 25.7217 19.0533 26.4256L19.4072 26.7794ZM21.248 26.7794L20.8943 27.1334L22.3884 28.6266L22.7422 28.2726L23.0959 27.9186L21.6018 26.4254L21.248 26.7794ZM22.7422 28.2726L22.3883 28.6264C22.7011 28.9392 22.7011 29.4466 22.3882 29.7596L22.7422 30.1134L23.0961 30.4672C23.7996 29.7635 23.7998 28.6225 23.0961 27.9187L22.7422 28.2726ZM22.7422 30.1134L22.3883 29.7595C22.0754 30.0724 21.5682 30.0724 21.2552 29.7595L20.9014 30.1134L20.5475 30.4673C21.2513 31.171 22.3923 31.1711 23.0961 30.4673L22.7422 30.1134ZM20.9014 30.1134L21.2551 29.7594L19.761 28.2662L19.4072 28.6202L19.0535 28.9742L20.5476 30.4674L20.9014 30.1134ZM19.4072 28.6202L19.7611 28.2664C19.4484 27.9536 19.4484 27.4462 19.7612 27.1332L19.4072 26.7794L19.0532 26.4256C18.35 27.1294 18.3496 28.2703 19.0533 28.9741L19.4072 28.6202ZM14.1514 16.2667L14.1513 16.7672C16.7775 16.7673 18.9068 18.8971 18.9068 21.5236H19.4072H19.9077C19.9077 18.3446 17.3305 15.7664 14.1514 15.7663L14.1514 16.2667ZM19.4072 21.5236L18.9068 21.5235C18.9065 24.1497 16.7775 26.2788 14.1513 26.279L14.1514 26.7794L14.1514 27.2799C17.3303 27.2797 19.9074 24.7024 19.9077 21.5236L19.4072 21.5236ZM14.1514 26.7794V26.279C11.5252 26.279 9.3962 24.1497 9.39597 21.5235L8.89551 21.5236L8.39505 21.5236C8.39533 24.7025 10.9723 27.2799 14.1514 27.2799V26.7794ZM8.89551 21.5236H9.39597C9.39597 18.897 11.5251 16.7672 14.1514 16.7672V16.2667V15.7663C10.9721 15.7663 8.39505 18.3445 8.39505 21.5236H8.89551ZM5.03906 20.2218V20.7223C5.48157 20.7223 5.84036 21.081 5.84036 21.5236H6.34082H6.84128C6.84128 20.5283 6.03436 19.7213 5.03906 19.7213V20.2218ZM6.34082 21.5236L5.84036 21.5234C5.8402 21.9655 5.48172 22.3239 5.03906 22.3239V22.8243V23.3248C6.03389 23.3248 6.84092 22.519 6.84128 21.5237L6.34082 21.5236ZM5.03906 22.8243V22.3239H3.30371V22.8243V23.3248H5.03906V22.8243ZM3.30371 22.8243V22.3239C2.86105 22.3239 2.50257 21.9655 2.50241 21.5234L2.00195 21.5236L1.5015 21.5237C1.50185 22.519 2.30887 23.3248 3.30371 23.3248V22.8243ZM2.00195 21.5236H2.50241C2.50241 21.081 2.8612 20.7223 3.30371 20.7223V20.2218V19.7213C2.3084 19.7213 1.5015 20.5283 1.5015 21.5236H2.00195ZM3.30371 20.2218V20.7223H5.03906V20.2218V19.7213H3.30371V20.2218ZM23.4521 3.21594L23.7024 3.64935C23.9641 3.49823 24.1824 3.48189 24.3607 3.52537C24.548 3.57101 24.7404 3.69529 24.9125 3.90591C25.2635 4.33564 25.4573 5.04157 25.3183 5.71996L25.8086 5.82043L26.2989 5.92089C26.4959 4.9593 26.2364 3.94448 25.6876 3.2727C25.4098 2.93256 25.0408 2.6609 24.5977 2.55292C24.1458 2.44277 23.6651 2.51512 23.2019 2.78253L23.4521 3.21594ZM25.8086 5.82043L25.3183 5.71995C24.81 8.19995 25.1727 10.8717 26.5392 13.2386L26.9727 12.9884L27.4061 12.7382C26.1666 10.5913 25.8378 8.17029 26.2989 5.92091L25.8086 5.82043ZM26.9727 12.9884L26.5392 13.2386C27.9057 15.6054 30.0377 17.2561 32.4395 18.056L32.5977 17.5812L32.7558 17.1064C30.5775 16.3809 28.6456 14.8851 27.4061 12.7382L26.9727 12.9884ZM32.5977 17.5812L32.4395 18.056C33.0967 18.2748 33.6112 18.7954 33.8079 19.314C33.9044 19.5682 33.9158 19.7968 33.8618 19.9816C33.8103 20.1577 33.6872 20.3385 33.4255 20.4896L33.6758 20.923L33.9261 21.3563C34.3891 21.0889 34.6921 20.7088 34.8225 20.2624C34.9504 19.8248 34.8995 19.3695 34.7438 18.959C34.4362 18.1481 33.6869 17.4164 32.7558 17.1063L32.5977 17.5812ZM33.6758 20.923L33.4256 20.4896C31.1899 21.7803 28.6542 22.0756 26.3236 21.5173L26.207 22.004L26.0904 22.4907C28.6591 23.1061 31.4588 22.7808 33.926 21.3564L33.6758 20.923ZM26.207 22.004L25.7421 21.8188C25.6237 22.1161 25.3351 22.3238 24.9989 22.3239L24.999 22.8243L24.9992 23.3248C25.7602 23.3246 26.4076 22.8529 26.672 22.1892L26.207 22.004ZM24.999 22.8243V22.3239H23.2627V22.8243V23.3248H24.999V22.8243ZM23.2627 22.8243L23.2628 22.3239C22.8201 22.3238 22.4616 21.9652 22.4614 21.5234L21.9609 21.5236L21.4605 21.5237C21.4608 22.519 22.2681 23.3245 23.2626 23.3248L23.2627 22.8243ZM21.9609 21.5236H22.4614C22.4614 21.22 22.6298 20.9546 22.8795 20.8183L22.6396 20.379L22.3998 19.9398C21.8407 20.2451 21.4605 20.8406 21.4605 21.5236H21.9609ZM22.6396 20.379L22.9305 19.9718C21.8334 19.188 20.8805 18.1653 20.1619 16.9208L19.7285 17.171L19.2951 17.4212C20.0873 18.7933 21.1388 19.9219 22.3487 20.7863L22.6396 20.379ZM19.7285 17.171L20.1619 16.9208C17.4766 12.2697 19.0628 6.32806 23.7024 3.64934L23.4521 3.21594L23.2019 2.78253C18.0819 5.73864 16.3344 12.2931 19.2951 17.4212L19.7285 17.171ZM5.56055 12.9327L5.91443 13.2866C6.22732 12.9737 6.73457 12.9737 7.04749 13.2866L7.40137 12.9327L7.75524 12.5789C7.05145 11.8751 5.91045 11.8751 5.20666 12.5789L5.56055 12.9327ZM7.40137 12.9327L7.04749 13.2866L8.54065 14.7798L8.89453 14.4259L9.24841 14.072L7.75524 12.5789L7.40137 12.9327ZM8.89453 14.4259L8.54065 14.7798C8.85355 15.0927 8.85356 15.5999 8.54065 15.9128L8.89453 16.2667L9.24841 16.6206C9.95218 15.9168 9.95219 14.7758 9.24841 14.072L8.89453 14.4259ZM8.89453 16.2667L8.54071 15.9128C8.22772 16.2257 7.72039 16.2256 7.40759 15.9128L7.05371 16.2667L6.69983 16.6206C7.40362 17.3244 8.54461 17.3242 9.24835 16.6206L8.89453 16.2667ZM7.05371 16.2667L7.40759 15.9128L5.91442 14.4197L5.56055 14.7736L5.20667 15.1274L6.69983 16.6206L7.05371 16.2667ZM5.56055 14.7736L5.91442 14.4197C5.60159 14.1068 5.60158 13.5995 5.91447 13.2866L5.56055 12.9327L5.20663 12.5789C4.50306 13.2826 4.50287 14.4236 5.20667 15.1274L5.56055 14.7736ZM14.1514 9.37414L14.1513 9.8746C14.5938 9.87467 14.9527 10.2335 14.9527 10.6759H15.4531H15.9536C15.9536 9.68058 15.1465 8.87385 14.1515 8.87368L14.1514 9.37414ZM15.4531 10.6759H14.9527V12.4112H15.4531H15.9536V10.6759H15.4531ZM15.4531 12.4112L14.9527 12.4112C14.9526 12.8536 14.5938 13.2125 14.1513 13.2125L14.1514 13.713L14.1515 14.2135C15.1465 14.2133 15.9535 13.4065 15.9536 12.4113L15.4531 12.4112ZM14.1514 13.713V13.2125C13.7089 13.2125 13.3501 12.8537 13.3501 12.4112L12.8496 12.4112L12.3492 12.4113C12.3492 13.4065 13.1561 14.2135 14.1514 14.2135V13.713ZM12.8496 12.4112H13.3501V10.6759H12.8496H12.3492V12.4112H12.8496ZM12.8496 10.6759H13.3501C13.3501 10.2334 13.7089 9.8746 14.1514 9.8746V9.37414V8.87368C13.1561 8.87368 12.3492 9.68059 12.3492 10.6759H12.8496Z" fill="white"/>
<defs>
<linearGradient id="paint0_linear_2953_1116" x1="18.1983" y1="3.00391" x2="18.1983" y2="33.6721" gradientUnits="userSpaceOnUse">
<stop stop-color="white"/>
<stop offset="1" stop-color="#B6B6B6"/>
</linearGradient>
</defs>
</svg>
