<svg width="512" height="512" viewBox="0 0 512 512" fill="none" xmlns="http://www.w3.org/2000/svg">
<g filter="url(#filter0_i_2953_969)">
<path d="M0 256C0 114.615 114.615 0 256 0V0C397.385 0 512 114.615 512 256V256C512 397.385 397.385 512 256 512V512C114.615 512 0 397.385 0 256V256Z" fill="url(#paint0_linear_2953_969)"/>
<path d="M256 0.5C397.109 0.5 511.5 114.891 511.5 256C511.5 397.109 397.109 511.5 256 511.5C114.891 511.5 0.5 397.109 0.5 256C0.5 114.891 114.891 0.5 256 0.5Z" stroke="white" stroke-opacity="0.12"/>
<path d="M324.278 78.5L311 68.9321L326.773 73.3276L325.989 57L332.381 72.0499L344.681 61.2583L336.878 75.6296L353 78.5L336.878 81.3703L344.681 95.7416L332.381 84.9501L325.989 100L326.773 83.6724L311 88.0686L324.278 78.5Z" fill="#F1DCCC"/>
<path d="M440.852 255.5L432 249.047L442.515 252.012L441.993 241L446.254 251.15L454.454 243.872L449.252 253.564L460 255.5L449.252 257.436L454.454 267.128L446.254 259.85L441.993 270L442.515 258.988L432 261.953L440.852 255.5Z" fill="#F1DCCC"/>
<g filter="url(#filter1_d_2953_969)">
<path d="M397 256C397 178.128 333.872 115 256 115C178.128 115 115 178.128 115 256C115 333.872 178.128 397 256 397C333.872 397 397 333.872 397 256Z" fill="white" fill-opacity="0.06" shape-rendering="crispEdges"/>
</g>
<g filter="url(#filter2_d_2953_969)">
<path d="M397 256C397 178.128 333.872 115 256 115C178.128 115 115 178.128 115 256C115 333.872 178.128 397 256 397C333.872 397 397 333.872 397 256Z" fill="black" fill-opacity="0.01" shape-rendering="crispEdges"/>
<path d="M116 256C116 178.68 178.68 116 256 116C333.32 116 396 178.68 396 256C396 333.32 333.32 396 256 396C178.68 396 116 333.32 116 256Z" stroke="#ECDC53" stroke-width="2" shape-rendering="crispEdges"/>
</g>
<g filter="url(#filter3_i_2953_969)">
<path d="M256 115C333.872 115 397 178.128 397 256C397 333.872 333.872 397 256 397C178.128 397 115 333.872 115 256C115 178.128 178.128 115 256 115ZM256 116C178.68 116 116 178.68 116 256C116 333.32 178.68 396 256 396C333.32 396 396 333.32 396 256C396 178.68 333.32 116 256 116Z" fill="black" fill-opacity="0.91"/>
</g>
</g>
<defs>
<filter id="filter0_i_2953_969" x="0" y="0" width="512" height="513" filterUnits="userSpaceOnUse" color-interpolation-filters="sRGB">
<feFlood flood-opacity="0" result="BackgroundImageFix"/>
<feBlend mode="normal" in="SourceGraphic" in2="BackgroundImageFix" result="shape"/>
<feColorMatrix in="SourceAlpha" type="matrix" values="0 0 0 0 0 0 0 0 0 0 0 0 0 0 0 0 0 0 127 0" result="hardAlpha"/>
<feOffset dy="1"/>
<feGaussianBlur stdDeviation="1"/>
<feComposite in2="hardAlpha" operator="arithmetic" k2="-1" k3="1"/>
<feColorMatrix type="matrix" values="0 0 0 0 1 0 0 0 0 1 0 0 0 0 1 0 0 0 0.15 0"/>
<feBlend mode="normal" in2="shape" result="effect1_innerShadow_2953_969"/>
</filter>
<filter id="filter1_d_2953_969" x="115" y="115" width="290" height="290" filterUnits="userSpaceOnUse" color-interpolation-filters="sRGB">
<feFlood flood-opacity="0" result="BackgroundImageFix"/>
<feColorMatrix in="SourceAlpha" type="matrix" values="0 0 0 0 0 0 0 0 0 0 0 0 0 0 0 0 0 0 127 0" result="hardAlpha"/>
<feOffset dx="4" dy="4"/>
<feGaussianBlur stdDeviation="2"/>
<feComposite in2="hardAlpha" operator="out"/>
<feColorMatrix type="matrix" values="0 0 0 0 1 0 0 0 0 1 0 0 0 0 1 0 0 0 0.25 0"/>
<feBlend mode="normal" in2="BackgroundImageFix" result="effect1_dropShadow_2953_969"/>
<feBlend mode="normal" in="BackgroundImageFix" in2="effect1_dropShadow_2953_969" result="BackgroundImageFix"/>
<feBlend mode="normal" in="SourceGraphic" in2="BackgroundImageFix" result="shape"/>
</filter>
<filter id="filter2_d_2953_969" x="115" y="115" width="290" height="290" filterUnits="userSpaceOnUse" color-interpolation-filters="sRGB">
<feFlood flood-opacity="0" result="BackgroundImageFix"/>
<feColorMatrix in="SourceAlpha" type="matrix" values="0 0 0 0 0 0 0 0 0 0 0 0 0 0 0 0 0 0 127 0" result="hardAlpha"/>
<feOffset dx="4" dy="4"/>
<feGaussianBlur stdDeviation="2"/>
<feComposite in2="hardAlpha" operator="out"/>
<feColorMatrix type="matrix" values="0 0 0 0 1 0 0 0 0 1 0 0 0 0 1 0 0 0 0.25 0"/>
<feBlend mode="normal" in2="BackgroundImageFix" result="effect1_dropShadow_2953_969"/>
<feBlend mode="normal" in="BackgroundImageFix" in2="effect1_dropShadow_2953_969" result="BackgroundImageFix"/>
<feBlend mode="normal" in="SourceGraphic" in2="BackgroundImageFix" result="shape"/>
</filter>
<filter id="filter3_i_2953_969" x="115" y="115" width="282" height="286" filterUnits="userSpaceOnUse" color-interpolation-filters="sRGB">
<feFlood flood-opacity="0" result="BackgroundImageFix"/>
<feBlend mode="normal" in="SourceGraphic" in2="BackgroundImageFix" result="shape"/>
<feColorMatrix in="SourceAlpha" type="matrix" values="0 0 0 0 0 0 0 0 0 0 0 0 0 0 0 0 0 0 127 0" result="hardAlpha"/>
<feOffset dy="4"/>
<feGaussianBlur stdDeviation="2"/>
<feComposite in2="hardAlpha" operator="arithmetic" k2="-1" k3="1"/>
<feColorMatrix type="matrix" values="0 0 0 0 1 0 0 0 0 1 0 0 0 0 1 0 0 0 0.6 0"/>
<feBlend mode="normal" in2="shape" result="effect1_innerShadow_2953_969"/>
</filter>
<linearGradient id="paint0_linear_2953_969" x1="256" y1="0" x2="256" y2="512" gradientUnits="userSpaceOnUse">
<stop offset="0.00976562" stop-color="white" stop-opacity="0.06"/>
<stop offset="1" stop-opacity="0.15"/>
</linearGradient>
</defs>
</svg>
