<svg width="37" height="37" viewBox="0 0 37 37" fill="none" xmlns="http://www.w3.org/2000/svg">
<path fill-rule="evenodd" clip-rule="evenodd" d="M11.8308 3.32235C14.5752 2.15521 17.5936 1.75076 20.5564 2.15317C23.5191 2.55558 26.3121 3.74937 28.6305 5.60412C30.9481 7.45859 32.7024 9.90247 33.7008 12.6688C34.3288 14.4023 34.0495 16.3878 32.9665 17.8894C31.8836 19.3906 30.0693 20.309 28.195 20.3044H23.8374H23.8341C23.0017 20.3021 22.1958 20.5914 21.5613 21.1201C20.9267 21.6488 20.5052 22.3823 20.3725 23.1888C20.2397 23.9953 20.4045 24.8218 20.8371 25.5197C21.2697 26.2177 21.9419 26.7411 22.7326 26.9962C22.7468 27.0008 22.7608 27.0056 22.7747 27.0106C24.0571 27.4782 24.954 28.6164 25.0402 29.9521C25.2283 31.4865 24.2083 33.0193 22.6853 33.4391C21.2623 33.8358 19.7898 34.0351 18.3105 34.0312C15.3201 34.0296 12.3875 33.2216 9.83315 31.6954C4.67307 28.6121 1.62334 22.8274 2.03978 16.9126C2.45622 10.9979 6.28767 5.67976 11.8308 3.32235ZM12.1814 18.0166C14.1126 18.0166 15.6782 16.4802 15.6782 14.5849C15.6782 12.6896 14.1126 11.1532 12.1814 11.1532C10.2502 11.1532 8.68462 12.6896 8.68462 14.5849C8.68462 16.4802 10.2502 18.0166 12.1814 18.0166ZM26.1683 11.1543C26.1683 13.0496 24.6027 14.586 22.6714 14.586C20.7402 14.586 19.1747 13.0496 19.1747 11.1543C19.1747 9.259 20.7402 7.72258 22.6714 7.72258C24.6027 7.72258 26.1683 9.259 26.1683 11.1543ZM12.1811 26.0227C13.4686 26.0227 14.5123 24.9985 14.5123 23.735C14.5123 22.4715 13.4686 21.4472 12.1811 21.4472C10.8936 21.4472 9.84993 22.4715 9.84993 23.735C9.84993 24.9985 10.8936 26.0227 12.1811 26.0227Z" fill="url(#paint0_linear_2953_1103)" fill-opacity="0.92" stroke="white" stroke-width="1.00092"/>
<defs>
<linearGradient id="paint0_linear_2953_1103" x1="18.0166" y1="2.00195" x2="18.0166" y2="34.0313" gradientUnits="userSpaceOnUse">
<stop stop-color="white"/>
<stop offset="1" stop-color="#B6B6B6"/>
</linearGradient>
</defs>
</svg>
