<svg width="37" height="37" viewBox="0 0 37 37" fill="none" xmlns="http://www.w3.org/2000/svg">
<path fill-rule="evenodd" clip-rule="evenodd" d="M18.0114 2.00196C20.4208 2.00059 22.7994 2.54318 24.97 3.58931C27.1408 4.63547 29.0474 6.15824 30.5477 8.04408C32.0482 9.92991 33.1037 12.1302 33.6358 14.4809C34.1676 16.8316 34.1623 19.2721 33.6201 21.6204C33.0779 23.9688 32.0128 26.1644 30.5042 28.0437C28.9956 29.923 27.0823 31.4373 24.9071 32.4742C22.7318 33.5108 20.3507 34.043 17.9412 34.0311C15.6597 34.0198 13.4085 33.5209 11.3378 32.5695L3.35755 34.0129C2.94982 34.0866 2.53393 33.9355 2.26856 33.6172C2.0032 33.2989 1.92931 32.8625 2.07509 32.4746L4.36426 26.3825C2.95896 24.0879 2.15259 21.473 2.02425 18.7788C1.88642 15.8852 2.5358 13.0085 3.90323 10.4549C5.27066 7.90136 7.30493 5.7666 9.78937 4.27805C12.2737 2.78954 15.1155 2.00292 18.0114 2.00196ZM17.1392 12.1321C17.5579 11.9586 18.0186 11.9132 18.4631 12.0017C18.9075 12.0901 19.3158 12.3084 19.6363 12.6289C19.9567 12.9495 20.1749 13.3578 20.2634 13.8025C20.3518 14.247 20.3064 14.7079 20.133 15.1267C19.9596 15.5455 19.6658 15.9034 19.2891 16.1553C18.9122 16.4071 18.4692 16.5416 18.016 16.5416C17.2213 16.5416 16.577 17.186 16.577 17.981V20.4686C16.577 21.2635 17.2213 21.908 18.016 21.908C18.8108 21.908 19.4551 21.2635 19.4551 20.4686V19.216C19.9614 19.0692 20.445 18.8451 20.888 18.549C21.7381 17.9808 22.4007 17.1732 22.792 16.2284C23.1832 15.2835 23.2856 14.2439 23.0861 13.2408C22.8867 12.2378 22.3943 11.3164 21.6714 10.5933C20.9484 9.87012 20.0273 9.37766 19.0245 9.17812C18.0218 8.9786 16.9824 9.08102 16.0378 9.47238C15.0932 9.86374 14.2859 10.5265 13.7178 11.3768C13.1498 12.2272 12.8466 13.2269 12.8466 14.2496C12.8466 15.0446 13.4909 15.689 14.2857 15.689C15.0804 15.689 15.7247 15.0446 15.7247 14.2496C15.7247 13.7963 15.8591 13.3531 16.1109 12.9762C16.3627 12.5993 16.7205 12.3056 17.1392 12.1321ZM18.0161 28.1269C16.8802 28.1243 15.96 27.2024 15.96 26.0656C15.96 24.9272 16.8827 24.0043 18.0208 24.0043C18.0224 24.0043 18.0239 24.0043 18.0255 24.0043C19.1614 24.0069 20.0815 24.9288 20.0815 26.0656C20.0815 27.204 19.1589 28.1269 18.0208 28.1269C18.0192 28.1269 18.0177 28.1269 18.0161 28.1269Z" fill="url(#paint0_linear_2953_1123)" fill-opacity="0.92" stroke="white" stroke-width="1.00092"/>
<defs>
<linearGradient id="paint0_linear_2953_1123" x1="18.0161" y1="2.00195" x2="18.0161" y2="34.0313" gradientUnits="userSpaceOnUse">
<stop stop-color="white"/>
<stop offset="1" stop-color="#B6B6B6"/>
</linearGradient>
</defs>
</svg>
