<svg width="37" height="37" viewBox="0 0 37 37" fill="none" xmlns="http://www.w3.org/2000/svg">
<path fill-rule="evenodd" clip-rule="evenodd" d="M12.2971 4.28976C12.2971 3.02624 11.2728 2.00195 10.0093 2.00195C8.74577 2.00195 7.72147 3.02624 7.72147 4.28976V6.57757H5.43366C3.53838 6.57757 2.00195 8.11399 2.00195 10.0093V30.5995C2.00195 32.4948 3.53838 34.0313 5.43366 34.0313H30.5995C32.4948 34.0313 34.0313 32.4948 34.0313 30.5995V10.0093C34.0313 8.11399 32.4948 6.57757 30.5995 6.57757H28.312V4.28976C28.312 3.02624 27.2877 2.00195 26.0242 2.00195C24.7607 2.00195 23.7364 3.02624 23.7364 4.28976V6.57757H12.2971V4.28976ZM17.9908 13.7272C18.2045 13.7231 18.4151 13.7788 18.5988 13.8881C18.7824 13.9975 18.9318 14.156 19.0301 14.3458L19.0344 14.3542L20.7373 17.7799L20.744 17.7813L24.5166 18.3541C24.7296 18.3831 24.9304 18.4716 25.0955 18.6094C25.2626 18.7487 25.3863 18.9328 25.4527 19.1399C25.519 19.3471 25.525 19.5688 25.4698 19.7792C25.4149 19.9885 25.3021 20.1779 25.1443 20.3256L22.4894 22.8486C22.5091 22.8948 22.5227 22.9433 22.5298 22.9931L23.0616 26.7354C23.1015 26.9457 23.0817 27.163 23.0043 27.363C22.9242 27.5696 22.7859 27.7487 22.6061 27.8782C22.4263 28.0079 22.2127 28.0825 21.9913 28.0933C21.7746 28.1038 21.5594 28.0523 21.3708 27.9452L18.0401 26.182C18.0298 26.1786 18.0189 26.1768 18.008 26.1768C17.997 26.1768 17.9862 26.1786 17.9759 26.182L14.6452 27.9452C14.4566 28.0523 14.2414 28.1038 14.0247 28.0933C13.8032 28.0825 13.5897 28.0079 13.4099 27.8782C13.2301 27.7487 13.0918 27.5696 13.0117 27.363C12.9332 27.1605 12.914 26.94 12.956 26.727L13.5873 22.9786C13.5907 22.9584 13.5952 22.9384 13.6008 22.9187L10.8683 20.3025L10.8568 20.2912C10.7091 20.1415 10.6054 19.9541 10.5571 19.7495C10.5088 19.5448 10.5178 19.3308 10.5831 19.1309C10.6484 18.931 10.7674 18.7529 10.9271 18.6162C11.0869 18.4795 11.2812 18.3893 11.4888 18.3557L11.4973 18.3544L15.278 17.8002L15.2807 17.7955L16.9793 14.3786C17.0703 14.1881 17.2123 14.0264 17.3895 13.9114C17.5689 13.7951 17.7771 13.7313 17.9908 13.7272Z" fill="url(#paint0_linear_2953_1109)" fill-opacity="0.92" stroke="white" stroke-width="1.00092"/>
<defs>
<linearGradient id="paint0_linear_2953_1109" x1="18.0166" y1="2.00195" x2="18.0166" y2="34.0313" gradientUnits="userSpaceOnUse">
<stop stop-color="white"/>
<stop offset="1" stop-color="#B6B6B6"/>
</linearGradient>
</defs>
</svg>
