<svg width="512" height="512" viewBox="0 0 512 512" fill="none" xmlns="http://www.w3.org/2000/svg">
<g filter="url(#filter0_i_2953_943)">
<path d="M0 256C0 114.615 114.615 0 256 0V0C397.385 0 512 114.615 512 256V256C512 397.385 397.385 512 256 512V512C114.615 512 0 397.385 0 256V256Z" fill="url(#paint0_linear_2953_943)" fill-opacity="0.2"/>
<path d="M256 0.5C397.109 0.5 511.5 114.891 511.5 256C511.5 397.109 397.109 511.5 256 511.5C114.891 511.5 0.5 397.109 0.5 256C0.5 114.891 114.891 0.5 256 0.5Z" stroke="white" stroke-opacity="0.12"/>
<path d="M324.278 78.5L311 68.9321L326.773 73.3276L325.989 57L332.381 72.0499L344.681 61.2583L336.878 75.6296L353 78.5L336.878 81.3703L344.681 95.7416L332.381 84.9501L325.989 100L326.773 83.6724L311 88.0686L324.278 78.5Z" fill="#F1DCCC"/>
<path d="M440.852 255.5L432 249.047L442.515 252.012L441.993 241L446.254 251.15L454.454 243.872L449.252 253.564L460 255.5L449.252 257.436L454.454 267.128L446.254 259.85L441.993 270L442.515 258.988L432 261.953L440.852 255.5Z" fill="#F1DCCC"/>
<g filter="url(#filter1_d_2953_943)">
<path d="M283.451 266.896C257.189 312.383 209.385 337.686 160.332 337.381C155.158 337.349 151.905 343.213 155.316 347.103C165.245 358.429 177.17 368.347 190.941 376.298C258.446 415.272 344.734 392.197 383.67 324.758C422.606 257.319 399.446 171.053 331.941 132.079C318.17 124.128 303.618 118.761 288.845 115.825C283.77 114.816 280.318 120.565 282.933 125.03C307.724 167.358 309.713 221.409 283.451 266.896Z" fill="#ECDC53" fill-opacity="0.06" shape-rendering="crispEdges"/>
<path d="M284.276 119.171C285.157 117.765 286.698 116.927 288.553 117.296C303.167 120.201 317.564 125.51 331.19 133.378C397.979 171.938 420.892 257.287 382.371 324.008C343.85 390.728 258.479 413.559 191.69 374.999C178.064 367.131 166.267 357.318 156.445 346.115C155.198 344.692 155.152 342.939 155.93 341.474C156.719 339.986 158.33 338.868 160.323 338.88C209.892 339.189 258.207 313.619 284.75 267.646C311.292 221.673 309.279 167.046 284.227 124.272C283.22 122.553 283.383 120.598 284.276 119.171Z" stroke="#F3E673" stroke-width="3" shape-rendering="crispEdges"/>
</g>
<path d="M284.655 120.444C285.534 119.04 287.073 118.204 288.926 118.572C303.368 121.438 317.592 126.682 331.053 134.454C397.16 172.621 419.752 257.263 381.505 323.508C343.258 389.754 258.66 412.51 192.553 374.343C179.092 366.571 167.439 356.874 157.735 345.8C156.49 344.38 156.445 342.629 157.221 341.166C158.009 339.679 159.619 338.561 161.609 338.569C210.692 338.782 258.551 313.35 284.891 267.728C311.231 222.107 309.325 167.943 284.6 125.542C283.598 123.823 283.761 121.87 284.655 120.444Z" fill="url(#paint1_linear_2953_943)" fill-opacity="0.92" stroke="#F3E673" stroke-width="3"/>
</g>
<defs>
<filter id="filter0_i_2953_943" x="0" y="0" width="512" height="513" filterUnits="userSpaceOnUse" color-interpolation-filters="sRGB">
<feFlood flood-opacity="0" result="BackgroundImageFix"/>
<feBlend mode="normal" in="SourceGraphic" in2="BackgroundImageFix" result="shape"/>
<feColorMatrix in="SourceAlpha" type="matrix" values="0 0 0 0 0 0 0 0 0 0 0 0 0 0 0 0 0 0 127 0" result="hardAlpha"/>
<feOffset dy="1"/>
<feGaussianBlur stdDeviation="1"/>
<feComposite in2="hardAlpha" operator="arithmetic" k2="-1" k3="1"/>
<feColorMatrix type="matrix" values="0 0 0 0 1 0 0 0 0 1 0 0 0 0 1 0 0 0 0.15 0"/>
<feBlend mode="normal" in2="shape" result="effect1_innerShadow_2953_943"/>
</filter>
<filter id="filter1_d_2953_943" x="153.914" y="115.709" width="256.654" height="287.537" filterUnits="userSpaceOnUse" color-interpolation-filters="sRGB">
<feFlood flood-opacity="0" result="BackgroundImageFix"/>
<feColorMatrix in="SourceAlpha" type="matrix" values="0 0 0 0 0 0 0 0 0 0 0 0 0 0 0 0 0 0 127 0" result="hardAlpha"/>
<feOffset dx="4" dy="4"/>
<feGaussianBlur stdDeviation="2"/>
<feComposite in2="hardAlpha" operator="out"/>
<feColorMatrix type="matrix" values="0 0 0 0 1 0 0 0 0 1 0 0 0 0 1 0 0 0 0.25 0"/>
<feBlend mode="normal" in2="BackgroundImageFix" result="effect1_dropShadow_2953_943"/>
<feBlend mode="normal" in="BackgroundImageFix" in2="effect1_dropShadow_2953_943" result="BackgroundImageFix"/>
<feBlend mode="normal" in="SourceGraphic" in2="BackgroundImageFix" result="shape"/>
</filter>
<linearGradient id="paint0_linear_2953_943" x1="256" y1="0" x2="256" y2="512" gradientUnits="userSpaceOnUse">
<stop offset="0.00976562" stop-color="white" stop-opacity="0.06"/>
<stop offset="1" stop-opacity="0.15"/>
</linearGradient>
<linearGradient id="paint1_linear_2953_943" x1="367.501" y1="153.765" x2="227.501" y2="396.252" gradientUnits="userSpaceOnUse">
<stop stop-color="#FFF3A0"/>
<stop offset="0.466346" stop-color="#ECDC7A"/>
<stop offset="1" stop-color="#C9B84A"/>
</linearGradient>
</defs>
</svg>
